<svg version="1" xmlns="http://www.w3.org/2000/svg" width="682.667" height="682.667" viewBox="0 0 512.000000 512.000000"><path d="M242 100.2c-1.9.4-7 1.2-11.2 1.8-4.2.6-8.9 1.3-10.3 1.6-5.9 1.1-22.4 6.9-30.5 10.7-4.7 2.2-8.6 3.9-8.8 3.8-.1-.1-1.2.8-2.4 1.9-1.2 1.1-2.8 2-3.5 2-.7 0-1.3.4-1.3.9s-1.3 1.4-3 2.1c-1.6.7-3 1.6-3 2 0 .4-1 1.1-2.2 1.7-2.7 1.2-5.7 3.7-18.8 15.7-1.9 1.7-6.3 6.5-9.7 10.6-3.4 4.1-6.9 8.3-7.8 9.2-.8 1-1.5 2.1-1.5 2.6 0 .4-.8 1.5-1.7 2.4-2.4 2.2-3.7 4.1-4.1 5.7-.1.7-.9 2-1.7 2.8-.8.8-1.5 2.1-1.5 2.9 0 .8-.5 1.4-1.1 1.4-.5 0-.8.4-.5.9.4.5.2 1.1-.2 1.3-.5.1-2.6 4.3-4.7 9.3-2.1 4.9-4 9.4-4.4 10-.3.5-.6 1.4-.7 2-.1.5-1.2 4.8-2.4 9.5s-2.3 9.4-2.5 10.5c-.1 1.1-.6 4.2-1 7-.5 2.7-.8 5.8-.7 6.8 0 .9-.3 1.5-.9 1.2-.5-.4-.6.3 0 1.7.5 1.3.5 3.3 0 4.5-.5 1.3-.4 2.5.2 2.8.5.4.6 1.2.2 1.8-1 1.6-1 3.8-.1 5.8.4.9.4 1.9.1 2.3-.8.8-1.1 9.6-.3 9.6.5 0 1.2 6.8 1.4 13.2.1 1.6.4 2.8.7 2.8.3 0 .7 1.7.8 3.7.2 2.1.3 4.6.4 5.5.1.9.5 1.4.9 1.2.4-.3.8.6.8 2.1 0 1.4.4 3.3.9 4.3.4.9 1.5 3.7 2.4 6.2.8 2.5 1.8 5.4 2.3 6.4.6 1.5.4 1.8-.7 1.2-.9-.5-.9-.3.2.6.8.7 2.8 4 4.4 7.3 1.6 3.3 4.5 8.5 6.5 11.5 3.9 6 5.4 9 5.1 10.3-.1.5.3.5.9.2.7-.4 1.4.2 1.7 1.4.3 1.2.9 2.1 1.4 2.1.5 0 .9.7.9 1.6 0 .8.4 1.3.8 1 .4-.3 1.9 1.3 3.2 3.5 1.4 2.1 3.1 3.9 3.8 3.9.7 0 1.1.4.8.9-.3.5.1 1.1.9 1.5.9.3 1.2 1.2.8 2.2-.4 1.1-.2 1.5.4 1.1 1.2-.8 5.6 2.7 4.6 3.7-.3.3 0 .6.7.6s3 1.8 5.1 4c2.1 2.2 4.1 4 4.4 4 1.2 0 3.4 2.8 2.7 3.5-.4.4-.2.6.3.5 2.2-.5 3.5.1 3.5 1.6 0 .9-.5 1.2-1.2.8-.7-.5-.8-.3-.3.6.6 1 1.1.9 2.2-.5 1.2-1.7 1.3-1.8 1.3-.1 0 .9.5 1.4 1 1.1.6-.3 1-.1 1 .4 0 .6-.5 1.1-1.2 1.1-.6 0-.8.3-.5.6.4.4 1.4.1 2.4-.7 1.5-1.2 1.6-1.2 1 .3-.4 1.3-.2 1.5 1 1.1 1.1-.4 1.4-.2.9.5-.5.8-.2 1 .8.6 1.1-.4 1.6 0 1.6 1.2 0 1.4.2 1.6.9.6.7-1.1.9-1 1.5.3.3.9 1 1.3 1.6 1 .5-.3 1-.1 1 .4 0 .6.7 1.1 1.5 1.1s1.5.5 1.5 1.1c0 .5.5.7 1 .4.6-.3 1-.1 1 .4 0 .6.3 1 .8.9 1.5-.3 4.2 1.5 3.6 2.4-.4.6.2.8 1.5.3 1.2-.4 2.1-.2 2.1.4 0 .6.3 1 .8.9 1.2-.4 7.2 2 7.2 2.9 0 .4 1 .8 2.3.9 1.2.1 6 1.3 10.7 2.8 4.6 1.4 10.3 2.8 12.7 3 2.3.3 4.6.7 5.1 1 .5.3 2.5.6 4.6.8 2.7.1 3.5.6 3.1 1.6-.4 1.2-.3 1.2.9.3.8-.7 2-1 2.5-.6.6.3 1.9.1 2.9-.4 1.3-.7 2.2-.7 3 .1.7.7 1.2.8 1.2.2 0-.5.5-.2 1 .6.6 1 1 1.1 1 .2 0-.6.5-1.2 1.1-1.2.5 0 .7.5.3 1.1-.4.8-.1.8 1.2.2 2.3-1.1 12.5-1 14.4.2.9.5 1.1.4.6-.3-.4-.7-.2-1.2.3-1.3 3.8-.4 5.8-.2 7 .6 1 .5 1.2.4.7-.3-.4-.7-.2-1.2.3-1.2.6 0 1.1.6 1.1 1.2 0 1 .3.9.9-.1.5-.7 2-1.3 3.5-1.3 1.4 0 2.6-.6 2.6-1.2s.4-.5.9.3c.6.8 1.4 1 2.2.5 1.4-.8 2.4-1.1 6.4-1.8 1.1-.2 2.9-.7 3.9-1.2 1.5-.6 1.8-.4 1.2.7-.4.8 0 .5.8-.5.9-1.1 1.6-1.6 1.6-1.2 0 .5.7.3 1.5-.4.8-.6 1.9-.9 2.5-.5.5.3 1 .2 1-.3 0-.9 7.1-3.2 9.4-3.1.5.1 1.2-.3 1.5-.8.3-.6 3.1-2.1 6.3-3.5 4.2-2 5.9-2.3 6.8-1.4.8.8 1 .7.5-.6-.4-1.1.1-2 1.4-2.8 1.2-.6 2.1-.8 2.1-.5 0 .4.7 0 1.5-.7 3.2-2.9 4.5-3.9 4.5-3.3 0 .3 1-.3 2.2-1.5 1.2-1.1 2.6-2 3.1-2s1.8-1 2.8-2.2c1.1-1.1 1.9-1.8 1.9-1.5 0 .4.8-.1 1.8-1.1 5.9-5.5 10.6-9.1 11.3-8.6.5.3.6-.2.3-1-.3-.9.2-1.7 1.5-2.1 1.2-.3 1.9-1.1 1.6-1.6-.6-.8.8-1.3 2.8-1 .4 0 .6-.5.5-1.1-.2-.7.2-1.2.9-1.1.7.2 1-.3.7-1-.2-.7.7-2.3 2.1-3.5 1.4-1.2 2.5-2.7 2.5-3.3 0-.5.4-.8 1-.4.5.3.7 1.3.4 2.3-.5 1.4-.4 1.4.4.2.6-.8.8-1.8.5-2.3-.4-.7 4.9-9.2 6.7-10.7.4-.3.9-1.3 1.3-2.3.4-1.1 1.2-1.5 1.8-1.1.7.4.9.3.5-.4-.3-.6.1-1.8 1-2.6.8-.9 1.2-1.6.7-1.6-.4 0-.1-.6.8-1.3 1.5-1.2 2.9-3.9 3.5-6.7.2-.8.8-1.6 1.3-1.8.6-.2 1.1-1 1.1-1.8s.5-1.4 1-1.4c.6 0 .9-.3.9-.8-.4-2.2.2-4.2 1.1-3.7.5.3.7 0 .4-.8-.3-.8 0-1.8.5-2.2.6-.3.9-1.1.6-1.6-.4-.5-.1-.9.5-.9s.8-.4.5-1c-.3-.5-.2-1 .4-1 .6 0 .7-.7.4-1.7-.5-1.2-.3-1.4.7-.8.8.5 1.1.4.7-.2-.8-1.3 1.4-9.4 2.4-8.7.5.3.6-.2.3-1s-.1-2.4.6-3.5c.8-1.6.8-2.1-.1-2.1-.8 0-.8-.5.2-1.6.7-.8 1.4-2.5 1.5-3.7.1-1.2.5-3.8.8-5.7.3-1.9.8-5.5 1.1-7.9.2-2.4.7-4.6.9-4.9.3-.2.1-1.2-.4-2.2-.6-1.2-.5-2.3.5-3.6.9-1.3 1-2.3.4-3.1-.7-.7-.6-1.4.1-1.8.8-.5.8-1 0-2s-.8-1.5 0-2 .8-1.1-.1-2.1c-.9-1.1-.8-1.4.2-1.4 1.1 0 1.1-.2-.1-1-.8-.5-1-1-.5-1 .6 0 .3-.5-.5-1s-1-1-.4-1c.7 0 1-1.3.7-3.3-.3-1.7-.6-4.1-.7-5.2-.1-1.1-.5-2.5-.9-3.2-.4-.6-.3-1.4.2-1.7.6-.4.6-1.8.1-3.8-1-3.1-2.2-10.2-2.3-12.6 0-.6-.5-1.2-1-1.2-.6 0-.8-.3-.4-.6.3-.3-.3-2.9-1.2-5.7-1-2.9-1.9-5.7-2.1-6.2-.1-.6-.6-2.1-1.1-3.3-.5-1.3-.6-2.9-.2-3.5.3-.7.3-.9-.2-.5-.7.7-4.3-5.8-4.8-8.7-.1-.5-.8-1.6-1.4-2.3-.7-.7-1.3-2-1.3-2.8 0-.8-.4-1.4-.8-1.4-.5 0-1.4-1.6-2.2-3.5-.8-1.9-1.7-3.5-2.2-3.5-.4 0-.8-.6-.8-1.3 0-.7-.9-2.3-2-3.5-1.1-1.2-2-2.6-2-3.2 0-.5-.4-1-1-1-.5 0-1-.7-1-1.6 0-.8-.4-1.2-1-.9-.5.3-1 0-1-.7 0-2.1-13.9-17.1-23.4-25.3-3.2-2.8-6.7-5.8-7.7-6.8-1.1-.9-1.9-1.4-1.9-1.1 0 .3-.7-.1-1.5-.8-3.3-3-4.5-3.8-5.5-3.8-.5 0-1-.3-1-.8 0-.4-1-1.2-2.3-1.8-1.2-.7-6.9-3.6-12.7-6.6-14.2-7.3-31.2-12.7-44.9-14.3-2.3-.3-6-.8-8.3-1.1-2.4-.3-4.7-.6-5.3-.6-5.1.1-9.6.2-12.5.2-1.9 0-4.4.1-5.5.3-1.1.2-2.2.1-2.5-.2-.3-.4-2.1-.3-4 .1zm19.7 31.3c.5.4.2.5-.6 0-1-.6-1.2-.4-.7.4.6.9 1.1.9 2.4-.1 1.3-1.1 1.4-1.1.7.2-.7 1.2-.6 1.3.6.4.8-.6 3.2-1 5.4-.9 3.9.1 4 .2 3.9 3.8-.1 2.1.2 3.5.5 3.2.3-.3.5-1.8.6-3.2 0-2 .5-2.7 2.2-2.8 1.2-.1 2.5.5 2.8 1.3.4 1.1.8 1.2 2 .2 1.4-1.2 2-.7 1.5 1.5-.1.5.4.5 1.1-.2.8-.8 1.9-.9 3.5-.3 1.3.5 2.4.7 2.4.4 0-.4.7-.1 1.5.6.9.7 1.8 1 2.1.7.3-.3 1.7.1 3.1.8 1.5.8 3 1.2 3.5.9 1.2-.8.9 1-.4 2.6-.7.8-.3.6 1-.4 1.3-1.2 2.2-1.5 2.2-.7 0 .7.5.9 1 .6.6-.3 1 .2 1 1.2 0 1.2.3 1.4.8.6.9-1.4 16.8 6.9 16.5 8.6-.2.6.4.8 1.2.5.8-.4 1.5-.1 1.5.5s.7 1.1 1.5 1.1c.7 0 1.8.6 2.2 1.4.4.7 1.8 1.8 3 2.5 1.5.7 2 1.7 1.7 2.9-.5 1.3-.4 1.4.4.3.8-1.1 2.8.4 9.3 7.1 13.5 13.8 16.6 17.7 15.1 19.3-.4.5-.2.5.4.2 1.3-.8 3.7 1.6 2.7 2.6-.3.4-.1.7.5.7.7 0 1.2.6 1.2 1.4 0 .8.4 1.6.8 1.8.5.1 2.3 2.9 4 6.1 1.8 3.2 2.6 5.5 2 5.1-.7-.5-.3.5 1 2 1.2 1.6 2.2 3.7 2.2 4.7s.5 2.1 1 2.4c.6.3 1 1.7 1 3s.5 2.7 1.1 3c.6.4.8 1.3.5 2.1-.3.7-.1 1.6.4 1.9.5.3.8 1.9.6 3.5-.2 1.6.1 2.7.5 2.4.5-.3 1 .9 1 2.5.1 3 .4 4.8.8 5.3.8 1 1.7 26.1 1.1 27.8-.1.3-.3 2.7-.4 5.3-.1 3-.8 5.2-1.7 5.8-.7.5-.9.9-.3.9.6 0 1.1.7 1.1 1.5s-.3 1.5-.6 1.5-.7 1.2-.7 2.7c-.2 2.5-.9 6.4-1.4 7-.2.2-.4.7-.5 1.3-.1.5-.3 1.1-.5 1.2-.2.3-.6 1.9-1.4 5.7-.3 1.4-1.1 2.8-1.7 3.1-.6.4-1.1 1.1-1 1.6.1 2-1.2 5.4-2 5.4-.5 0-.8.3-.7.7.4 1.4-1.3 5.3-2.3 5.3-.5 0-.8.3-.7.7.3 1.6-2.5 6.2-3.5 5.6-.6-.3-.7-.1-.3.5.3.6-2.1 4.6-5.4 8.9-8 10.5-9.6 12.3-10.9 12.3-.6 0-1.1.6-1.1 1.3 0 .7-1 1.9-2.1 2.7-1.2.8-3.3 2.7-4.7 4.2-1.4 1.5-2.9 2.5-3.3 2.2-.5-.3-.9.1-.9.8-.1 1.3-13.1 10.8-14.9 10.8-.5 0-1.1.4-1.3.8-.1.4-3 2-6.3 3.6s-7.2 3.5-8.7 4.2c-1.4.8-3.3 1.4-4.2 1.4-.9 0-1.6.5-1.6 1.2 0 .6-.3.9-.6.6-.3-.3-2.9.1-5.7.9-2.9.7-6.1 1.6-7.2 1.8-1.1.2-3.1.6-4.5 1-6.8 1.6-28.6 2.3-37.5 1.1-6.6-.9-10.9-1.6-13.5-2.2-1.4-.3-3.4-.7-4.5-.9-1.1-.2-2.2-.4-2.5-.5-.3-.1-.8-.2-1.2-.1-.5 0-.8-.3-.8-.7 0-.5-.6-.9-1.3-.9-2.1 0-15.7-5.4-17.1-6.8-.8-.8-1.6-1.1-2-.8-.3.4-.6.1-.6-.5 0-.7-.3-1.2-.7-1.1-1.6.2-5.3-1.4-5.3-2.2 0-.5-.6-.9-1.3-.9-.7 0-2.3-.9-3.5-2-1.2-1.1-2.6-2-3.1-2s-1.6-.8-2.3-1.8c-.7-.9-2.4-2.5-3.8-3.3-3.9-2.5-10.5-9-10.2-10 .1-.5-.2-.8-.6-.7-1.1.4-10.1-9.4-10.2-11 0-.6-.4-1.2-.9-1.2-1.9 0-16.6-25.2-15.4-26.4.4-.3-.2-1.5-1.2-2.6s-1.5-2-1-2c.4 0 .2-.7-.5-1.5s-.9-1.5-.5-1.5.3-.6-.2-1.3c-.6-.6-.9-2-.8-3 .2-.9-.1-1.7-.7-1.7s-.8-1.2-.5-2.6c.3-1.5 0-2.8-.8-3-.7-.3-1.3-1.5-1.3-2.7-.1-3.6-1.2-10.8-1.9-12-.3-.5-.1-.7.5-.3.6.3 1.4.2 1.7-.4.4-.6.1-.9-.6-.8-1.4.3-1.5-.4-1.9-8.7-.4-10.3 0-14.6 1.2-13.9.6.4.8.3.5-.3-1.3-2-1.6-6.7-.5-8 .5-.7.8-2.2.5-3.3-.3-1.1-.1-2 .3-2 .5 0 .7-.9.5-2-.2-1.1 0-2 .5-2 .4 0 .7-1.1.5-2.5-.1-1.4.1-2.5.6-2.5s.6-.6.3-1.4c-.3-.8 0-1.7.5-2.1.6-.3.9-1.1.6-1.6-.4-.5-.2-.9.3-.9s.9-.7 1-1.5c.1-.8.3-2.2.4-3 .1-.8.6-1.5 1.1-1.5.6 0 .7-.3.4-.7-.4-.3-.2-1.2.4-2 .6-.7.8-1.3.3-1.3-.4 0 .1-.7 1.2-1.6 1-.8 1.3-1.3.7-.9-.9.4-1.1.1-.7-1 .4-.9 1.3-1.4 2.2-1 1.2.4 1.3.3.2-1-1-1.2-1-1.5 0-1.5.8 0 1-.3.7-.7-.4-.3.1-1.2 1.1-2 .9-.8 1.1-1.1.3-.7-1 .5-.9-.2.4-2.4 1-1.7 2.2-2.9 2.6-2.7.4.3 1-.2 1.3-1.1.4-1 .2-1.3-.6-.8-.7.4-.2-.7 1.1-2.4 1.2-1.8 2.7-3.2 3.2-3.2.6 0 .8-.4.5-.9-.3-.5.1-1.2 1-1.5.9-.3 1.2-1.1.8-1.8-.5-.8-.2-.9 1-.5.9.4 1.5.3 1.2-.2-.9-1.5 10.8-14.2 18.9-20.6 2.1-1.7 4.5-3.8 5.4-4.8.8-.9 1.9-1.7 2.4-1.7s3.4-1.8 6.4-4c3.1-2.2 6-3.7 6.4-3.4.5.3.9.1.9-.4 0-.6.7-1.3 1.6-1.6.8-.3 1.2-.2.9.3-.3.5 0 1.3.6 1.7.7.4.9.3.6-.2-.3-.6-.3-1.5.1-2.1.9-1.5 10.8-5.4 11.6-4.6.3.4.6.1.6-.6 0-.8.7-1 2.1-.6 1.6.5 1.9.4 1.4-.6-.6-.9-.3-1.1.8-.6 1 .4 1.7.2 1.7-.5 0-.6.6-.5 1.7.3.9.8 1.4.9 1 .3-.4-.7.4-1.5 2.1-2 4.5-1.3 5.7-1 5.4 1.1-.3 1.7 0 1.6 1.5-.5 1-1.4 2.7-2.6 3.8-2.6 1.1-.1 2.7-.3 3.5-.5.9-.2 1.4.2 1.2 1-.2 1.1 0 1.2 1.1.3.8-.7 1.7-.9 2-.5.4.3.7.1.7-.5 0-.7.5-1.2 1.1-1.2.5 0 .7.6.3 1.2-.6 1-.4 1 .7.2 1.8-1.3 9.3-1.9 8.6-.7-.4.6 0 1 .7 1 .8 0 1.2-.6 1-1.2-.5-1.3 3.1-1.4 4.3 0z"/><path d="M227.3 136.7c0 .9.4 1 1.4.2.7-.6 1.3-1.2 1.3-1.4 0-.1-.6-.2-1.3-.2-.8 0-1.4.6-1.4 1.4zM239.3 136.5c0 .8.4 1.2.9.9.5-.3.6-1 .3-1.5-.9-1.3-1.2-1.1-1.2.6zM242.6 136.2c.3.5 1 .6 1.5.3 1.3-.9 1.1-1.2-.6-1.2-.8 0-1.2.4-.9.9zM235 137.4c0 .2.7.7 1.6 1 .8.3 1.2.2.9-.4-.6-1-2.5-1.4-2.5-.6zM249.3 138.5c0 .8.4 1.2.9.9.5-.3.6-1 .3-1.5-.9-1.3-1.2-1.1-1.2.6zM266.6 137.8c-.3.5.1.9.9.9s1.2-.4.9-.9c-.3-.4-.7-.8-.9-.8-.2 0-.6.4-.9.8zM277 138.1c0 .5.5.7 1 .4.6-.3 1-.8 1-1.1 0-.2-.4-.4-1-.4-.5 0-1 .5-1 1.1zM294 139.4c0 .2.8 1 1.8 1.7 1.5 1.3 1.6 1.2.3-.4s-2.1-2.1-2.1-1.3zM289.5 142c-.3.5-.1 1 .4 1 .6 0 1.1-.5 1.1-1 0-.6-.2-1-.4-1-.3 0-.8.4-1.1 1zM205 142.4c0 .2.8 1 1.8 1.7 1.5 1.3 1.6 1.2.3-.4s-2.1-2.1-2.1-1.3zM214.5 144c-.3.6.1.7.9.4 1.8-.7 2.1-1.4.7-1.4-.6 0-1.3.4-1.6 1zM193.9 148.7c-1.3 1.6-1.2 1.7.3.5.9-.8 2.3-1 2.9-.6.8.4.9.3.5-.4-1-1.7-2.1-1.5-3.7.5zM189 154.1c0 .5.5.7 1 .4.6-.3 1-.8 1-1.1 0-.2-.4-.4-1-.4-.5 0-1 .5-1 1.1zM182 158c-.9.6-1 1-.3 1 .6 0 1.5-.5 1.8-1 .8-1.2.4-1.2-1.5 0zM185 158c0 .5.5 1 1.1 1 .5 0 .7-.5.4-1-.3-.6-.8-1-1.1-1-.2 0-.4.4-.4 1zM331.9 164.7c-1.3 1.6-1.2 1.7.4.4 1.6-1.3 2.1-2.1 1.3-2.1-.2 0-1 .8-1.7 1.7zM339.6 167.3c.3 1 .9 1.5 1.2 1.2.3-.3 0-1.1-.7-1.8-1-.9-1.1-.8-.5.6zM343.5 170.9c-.3.5-.2 1.2.3 1.5.5.3.9-.1.9-.9 0-1.7-.3-1.9-1.2-.6zM163.6 175.8c-.3.5.1.9.9.9s1.2-.4.9-.9c-.3-.4-.7-.8-.9-.8-.2 0-.6.4-.9.8zM240.9 186.5c-.1 4.9-.1 12.3 0 16.4.1 6.5-.1 7.2-1.7 6.7-1.5-.6-1.6-.5-.1.7 1.4 1 1.7 3.4 1.7 13.5 0 6.7-.3 12-.7 11.8-.4-.3-.8.1-.8.9s.4 1.2.9.9c.4-.3.8.6.8 2s-.6 2.6-1.2 2.6c-.9 0-1 .3-.2.8 1.6 1 1.8 9.5.1 8.6-.9-.6-.9-.5 0 .7 1.5 1.9 1.4 19.1-.1 20.2-.7.6-.5.7.5.4 1.9-.6 7.3 2.6 6.2 3.7-.4.4 0 .4 1 0 1.1-.4 1.9 0 2.3 1 .3.9.9 1.4 1.3 1.1.4-.2 2.4.7 4.4 2 2 1.4 4.1 2.5 4.6 2.5.6 0 1.1.3 1.1.7 0 .8 5.8 4.4 6.4 4 1-.7 3.6 2.9 3.1 4.2-.5 1.2-.3 1.3.5.5 1.2-1.2 6 .3 6 1.8 0 .5.7.8 1.6.8 1 0 1.4.6 1.1 1.5-.4.8-.1 1.7.5 2.1.6.4.8.3.5-.3-.4-.6 0-1.3.8-1.7.9-.3 1.5 0 1.5 1 0 .8.5 1.2 1 .9.6-.3 1-.1 1 .4 0 .6.3 1.1.8 1 1.2-.2 5.2 1.3 5.2 2 0 .3-.9 1.2-2 1.9s-2 1.7-2 2.4.6.3 1.4-.7c1.2-1.7 1.6-1.8 3.2-.5 1.8 1.4 1.8 1.4.4-.4-1.3-1.7-1.3-1.9 0-1.3.8.4 2.3 1 3.3 1.3.9.4 1.7 1 1.7 1.5s.7.9 1.6.9c1 0 1.4.6 1.1 1.5-.4.8-.1 1.7.5 2.1.7.4.8.3.4-.4s-.1-1.2.8-1.2 1.6.5 1.6 1.2c0 .6.3.8.7.5.3-.4 1.2.1 2 1.1.8.9 1.1 1.1.8.3-.5-.9.1-.8 1.9.4 2.5 1.6 3.9 4.4 1.4 2.9-.7-.4-.8-.3-.4.5.6.8 1.1.9 2 .1 1-.7 2-.5 3.9 1 1.4 1.1 3 2 3.6 2 .6 0 1.1.4 1.1 1 0 2.4 3.8.8 5-2 .7-1.7 1.6-3 2.1-3 .4 0 1.1-1 1.5-2.3.4-1.2.9-2.4 1.3-2.7 2.5-2.1 5.4-10.9 3.1-9.5-.5.3-1 .2-1-.3 0-.6-1.3-1.5-3-2.1-1.6-.5-3-1.5-3-2 0-.6-.3-1-.7-.9-1.3.3-6.3-2.4-6.3-3.4 0-.4-.3-.7-.7-.6-1.5.5-14.2-7.6-13.6-8.5.3-.6.1-.7-.4-.4-.9.6-36.1-19.7-38.7-22.3-1.4-1.4-1.5-40-.1-40 .6 0 .6-.3 0-.8-.7-.4-1.1-8.2-1-21.3v-20.6l-11.7.1H241l-.1 9.1zM363 197.4c0 .2.7.7 1.6 1 .8.3 1.2.2.9-.4-.6-1-2.5-1.4-2.5-.6z"/><path d="M249.5 282c-.3.5-.1 1 .4 1 .6 0 1.1-.5 1.1-1 0-.6-.2-1-.4-1-.3 0-.8.4-1.1 1zM253 281.5c0 .5.5 1.7 1 2.5s1 1 1 .5c0-.6-.5-1.7-1-2.5s-1-1.1-1-.5zM263.3 288.5c0 .8.4 1.2.9.9.5-.3.6-1 .3-1.5-.9-1.3-1.2-1.1-1.2.6zM281.5 302.1c-.3.4.2.6 1 .5 2.1-.3 2.8-1.3 1-1.3-.9 0-1.8.4-2 .8zM293 309.5c0 .7 3 1.3 3.4.7.3-.4-.4-.9-1.5-.9-1-.1-1.9 0-1.9.2zM301.3 313.5c0 .8.4 1.2.9.9.5-.3.6-1 .3-1.5-.9-1.3-1.2-1.1-1.2.6zM133.6 358.2c.3.5 1 .6 1.5.3 1.3-.9 1.1-1.2-.6-1.2-.8 0-1.2.4-.9.9zM369.6 367.8c-.3.5.1.9.9.9s1.2-.4.9-.9c-.3-.4-.7-.8-.9-.8-.2 0-.6.4-.9.8zM143.5 375.9c-.3.5-.2 1.2.3 1.5.5.3.9-.1.9-.9 0-1.7-.3-1.9-1.2-.6zM175.6 393.9c-.3.5.2 1.5 1.2 2.2 1.5 1.2 1.6 1.2.5-.2-.7-.9-1-1.9-.6-2.2.3-.4.4-.7 0-.7-.3 0-.8.4-1.1.9zM183.5 398c-.3.5-.1 1 .4 1 .6 0 1.1-.5 1.1-1 0-.6-.2-1-.4-1-.3 0-.8.4-1.1 1zM324.9 399.7c-1.3 1.6-1.2 1.7.4.4.9-.7 1.7-1.5 1.7-1.7 0-.8-.8-.3-2.1 1.3zM321.9 399.2c-.5 1.8-.6 3.8-.1 3.4.7-.8 1.2-3.6.6-3.6-.2 0-.4.1-.5.2zM185.6 401.8c-.3.5.1.9.9.9s1.2-.4.9-.9c-.3-.4-.7-.8-.9-.8-.2 0-.6.4-.9.8zM191.4 401.8c.4.3 1.4.7 2.2.8.9.1 1.3 0 1-.4-.4-.3-1.4-.7-2.2-.8-.9-.1-1.3 0-1 .4zM192.5 406c-.3.6.1.7.9.4 1.8-.7 2.1-1.4.7-1.4-.6 0-1.3.4-1.6 1zM310.6 406.2c.3.5 1 .6 1.5.3 1.3-.9 1.1-1.2-.6-1.2-.8 0-1.2.4-.9.9zM208.4 408.2c-.4.7-.3.8.5.4.6-.4 2-.2 2.9.6 1.5 1.2 1.6 1.1.3-.5-1.6-2-2.7-2.2-3.7-.5zM303.5 408c.3.5.8 1 1.1 1 .2 0 .4-.5.4-1 0-.6-.5-1-1.1-1-.5 0-.7.4-.4 1zM318.6 407.8c-.3.5.1.9.9.9s1.2-.4.9-.9c-.3-.4-.7-.8-.9-.8-.2 0-.6.4-.9.8zM301.3 409.5c0 .8.4 1.2.9.9.5-.3.6-1 .3-1.5-.9-1.3-1.2-1.1-1.2.6zM214.7 410.1c.7.7 1.5 1 1.8.7.3-.3-.2-.9-1.2-1.2-1.4-.6-1.5-.5-.6.5zM241.5 415.1c-.4.6-.5 1.2-.2 1.5.2.3.7-.2 1-1.1.7-1.7.1-2-.8-.4zM265.6 416.2c.3.5 1 .6 1.5.3 1.3-.9 1.1-1.2-.6-1.2-.8 0-1.2.4-.9.9zM269.5 416c-.3.5-.1 1 .4 1 .6 0 1.1-.5 1.1-1 0-.6-.2-1-.4-1-.3 0-.8.4-1.1 1zM281.6 415.8c-.3.5.1.9.9.9s1.2-.4.9-.9c-.3-.4-.7-.8-.9-.8-.2 0-.6.4-.9.8zM245.3 417.5c0 .8.4 1.2.9.9.5-.3.6-1 .3-1.5-.9-1.3-1.2-1.1-1.2.6zM235.6 418.2c.3.4 1.1.5 1.9.1 2.1-.7 1.9-1.2-.4-1-1.1 0-1.8.5-1.5.9zM248.6 417.8c-.3.5.1.9.9.9s1.2-.4.9-.9c-.3-.4-.7-.8-.9-.8-.2 0-.6.4-.9.8zM273.9 420.7c-1.3 1.6-1.2 1.7.4.4 1.6-1.3 2.1-2.1 1.3-2.1-.2 0-1 .8-1.7 1.7z"/></svg>