<?xml version="1.0" standalone="no"?>
<!DOCTYPE svg PUBLIC "-//W3C//DTD SVG 20010904//EN"
 "http://www.w3.org/TR/2001/REC-SVG-20010904/DTD/svg10.dtd">
<svg version="1.0" xmlns="http://www.w3.org/2000/svg"
 width="96.000000pt" height="96.000000pt" viewBox="0 0 96.000000 96.000000"
 preserveAspectRatio="xMidYMid meet">
<metadata>
Created by potrace 1.14, written by Peter Selinger 2001-2017
</metadata>
<g transform="translate(0.000000,96.000000) scale(0.100000,-0.100000)"
fill="#000000" stroke="none">
<path d="M199 831 c-31 -26 -71 -59 -88 -73 l-33 -25 27 -31 27 -32 46 39 c26
21 67 57 92 79 l45 40 -24 26 c-14 14 -27 26 -30 26 -3 -1 -31 -22 -62 -49z"/>
<path d="M669 854 l-24 -26 45 -40 c25 -22 66 -58 91 -79 l46 -38 27 28 26 27
-37 35 c-52 46 -140 119 -145 119 -3 0 -15 -12 -29 -26z"/>
<path d="M381 785 c-114 -32 -202 -115 -241 -229 -37 -108 -11 -260 58 -341
33 -39 107 -93 152 -111 62 -25 199 -26 259 -1 142 58 233 195 227 343 -4 80
-7 95 -36 156 -28 60 -98 129 -165 162 -69 34 -176 43 -254 21z m215 -93 c64
-33 103 -70 132 -126 22 -42 26 -65 27 -126 0 -119 -50 -199 -159 -251 -50
-24 -69 -28 -125 -25 -219 10 -341 242 -225 428 70 111 237 159 350 100z"/>
<path d="M442 518 l3 -122 85 -52 c47 -29 90 -53 96 -53 6 -1 16 9 21 22 10
22 6 26 -68 71 l-79 47 0 105 0 104 -30 0 -31 0 3 -122z"/>
</g>
</svg>
