<?xml version="1.0" standalone="no"?>
<!DOCTYPE svg PUBLIC "-//W3C//DTD SVG 20010904//EN"
 "http://www.w3.org/TR/2001/REC-SVG-20010904/DTD/svg10.dtd">
<svg version="1.0" xmlns="http://www.w3.org/2000/svg"
 width="700.000000pt" height="700.000000pt" viewBox="0 0 700.000000 700.000000"
 preserveAspectRatio="xMidYMid meet">
<metadata>
Created by potrace 1.14, written by Peter Selinger 2001-2017
</metadata>
<g transform="translate(0.000000,700.000000) scale(0.100000,-0.100000)"
fill="#000000" stroke="none">
<path d="M3327 6414 c-1 -1 -38 -5 -82 -9 -95 -8 -125 -11 -185 -21 -46 -7
-51 -8 -110 -19 -19 -4 -46 -9 -60 -12 -196 -35 -524 -153 -730 -262 -288
-152 -481 -293 -711 -521 -317 -313 -541 -663 -692 -1081 -68 -187 -124 -414
-143 -574 -4 -27 -8 -52 -9 -55 -8 -13 -19 -227 -19 -360 0 -225 11 -345 50
-545 88 -465 293 -908 589 -1280 158 -199 407 -430 620 -577 239 -165 545
-312 805 -388 41 -12 86 -26 100 -30 28 -10 194 -45 255 -55 218 -33 299 -39
500 -39 148 1 301 9 350 19 11 2 42 7 69 10 367 44 815 213 1156 436 103 67
227 156 250 179 3 3 34 29 70 59 208 174 443 452 597 707 209 346 334 702 397
1134 26 176 26 538 1 730 -75 561 -291 1061 -649 1500 -118 145 -277 297 -501
478 -34 27 -217 148 -275 181 -380 218 -747 335 -1210 387 -50 5 -427 13 -433
8z m349 -588 c84 -6 211 -22 235 -30 8 -3 32 -8 54 -11 43 -6 203 -47 271 -70
672 -224 1212 -749 1454 -1415 42 -114 86 -268 100 -352 5 -29 11 -62 14 -73
2 -11 7 -51 11 -90 4 -38 9 -83 11 -100 5 -37 5 -353 0 -380 -2 -11 -7 -51
-11 -89 -7 -73 -13 -111 -20 -136 -2 -8 -7 -31 -10 -50 -3 -19 -8 -43 -11 -52
-3 -9 -7 -26 -9 -39 -8 -38 -36 -131 -65 -214 -147 -416 -402 -774 -745 -1046
-55 -43 -104 -83 -110 -87 -42 -33 -230 -143 -320 -187 -265 -129 -490 -192
-820 -230 -54 -7 -364 -7 -405 -1 -14 2 -50 7 -80 10 -451 54 -900 251 -1239
546 -123 107 -183 170 -331 346 -10 12 -54 76 -98 143 -212 320 -342 693 -377
1081 -6 72 -7 363 -1 395 2 11 7 52 11 90 21 214 118 538 225 750 311 615 848
1051 1510 1224 247 64 478 85 756 67z"/>
<path d="M3346 4945 c-49 -17 -93 -59 -117 -110 -18 -38 -19 -81 -19 -777 0
-721 0 -738 21 -793 21 -58 78 -124 129 -150 16 -8 49 -28 73 -45 25 -16 47
-30 50 -30 4 0 129 -74 387 -229 8 -5 173 -104 365 -220 204 -122 367 -214
390 -219 154 -34 286 107 245 259 -18 64 -63 103 -243 211 -95 56 -228 135
-297 176 -69 41 -138 82 -155 92 -25 14 -389 230 -492 292 -18 11 -33 23 -34
26 -1 4 -2 313 -3 687 -2 739 0 715 -58 777 -56 59 -159 82 -242 53z"/>
</g>
</svg>
